<mxfile host="Electron" modified="2023-12-10T16:32:12.249Z" agent="Mozilla/5.0 (Macintosh; Intel Mac OS X 10_15_7) AppleWebKit/537.36 (KHTML, like Gecko) draw.io/22.1.2 Chrome/114.0.5735.289 Electron/25.9.4 Safari/537.36" etag="uRxbO_2Ge-nyg2sEcm0s" version="22.1.2" type="device">
  <diagram name="Page-1" id="eGsYXvjjxoPXz367dYDe">
    <mxGraphModel dx="2372" dy="981" grid="0" gridSize="10" guides="1" tooltips="1" connect="1" arrows="1" fold="1" page="0" pageScale="1" pageWidth="827" pageHeight="1169" math="0" shadow="0">
      <root>
        <mxCell id="0" />
        <mxCell id="1" parent="0" />
        <mxCell id="wv1XjT0LFwEQacN8_PaS-1" value="&lt;font face=&quot;Times New Roman&quot;&gt;Иницилизация алгоритма&lt;br&gt;рендера изображения.&lt;br&gt;&lt;/font&gt;" style="rounded=0;whiteSpace=wrap;html=1;hachureGap=4;fontFamily=Architects Daughter;fontSource=https%3A%2F%2Ffonts.googleapis.com%2Fcss%3Ffamily%3DArchitects%2BDaughter;fontSize=20;" parent="1" vertex="1">
          <mxGeometry x="205" y="273" width="231" height="114" as="geometry" />
        </mxCell>
        <mxCell id="mkTNvh2SJK-kbhCOiKYR-7" style="edgeStyle=orthogonalEdgeStyle;rounded=0;orthogonalLoop=1;jettySize=auto;html=1;exitX=1;exitY=0.5;exitDx=0;exitDy=0;entryX=0;entryY=0.25;entryDx=0;entryDy=0;" parent="1" source="wv1XjT0LFwEQacN8_PaS-1" target="mkTNvh2SJK-kbhCOiKYR-6" edge="1">
          <mxGeometry relative="1" as="geometry">
            <Array as="points">
              <mxPoint x="436" y="325" />
              <mxPoint x="516" y="325" />
              <mxPoint x="516" y="383" />
            </Array>
            <mxPoint x="448" y="325.5" as="sourcePoint" />
          </mxGeometry>
        </mxCell>
        <mxCell id="mkTNvh2SJK-kbhCOiKYR-10" value="&lt;font style=&quot;font-size: 14px;&quot; face=&quot;Times New Roman&quot;&gt;трассировщик&lt;/font&gt;" style="edgeLabel;html=1;align=center;verticalAlign=middle;resizable=0;points=[];" parent="mkTNvh2SJK-kbhCOiKYR-7" vertex="1" connectable="0">
          <mxGeometry x="-0.4286" y="1" relative="1" as="geometry">
            <mxPoint x="-2" y="-12" as="offset" />
          </mxGeometry>
        </mxCell>
        <mxCell id="EeyhYUfQf3vMyXZD8uqz-1" style="edgeStyle=orthogonalEdgeStyle;rounded=0;orthogonalLoop=1;jettySize=auto;html=1;exitX=1;exitY=0.75;exitDx=0;exitDy=0;entryX=0;entryY=0.5;entryDx=0;entryDy=0;" edge="1" parent="1" source="wv1XjT0LFwEQacN8_PaS-3" target="wv1XjT0LFwEQacN8_PaS-5">
          <mxGeometry relative="1" as="geometry" />
        </mxCell>
        <mxCell id="EeyhYUfQf3vMyXZD8uqz-2" value="&lt;font style=&quot;font-size: 16px;&quot; face=&quot;Times New Roman&quot;&gt;шаг&lt;/font&gt;" style="edgeLabel;html=1;align=center;verticalAlign=middle;resizable=0;points=[];" vertex="1" connectable="0" parent="EeyhYUfQf3vMyXZD8uqz-1">
          <mxGeometry x="-0.7472" y="4" relative="1" as="geometry">
            <mxPoint x="1" y="-9" as="offset" />
          </mxGeometry>
        </mxCell>
        <mxCell id="EeyhYUfQf3vMyXZD8uqz-5" style="edgeStyle=orthogonalEdgeStyle;rounded=0;orthogonalLoop=1;jettySize=auto;html=1;exitX=1;exitY=0.25;exitDx=0;exitDy=0;" edge="1" parent="1" source="wv1XjT0LFwEQacN8_PaS-3">
          <mxGeometry relative="1" as="geometry">
            <mxPoint x="1251.333333333333" y="523" as="targetPoint" />
          </mxGeometry>
        </mxCell>
        <mxCell id="EeyhYUfQf3vMyXZD8uqz-6" value="&lt;font style=&quot;font-size: 16px;&quot; face=&quot;Times New Roman&quot;&gt;изображение на экране&lt;/font&gt;" style="edgeLabel;html=1;align=center;verticalAlign=middle;resizable=0;points=[];" vertex="1" connectable="0" parent="EeyhYUfQf3vMyXZD8uqz-5">
          <mxGeometry x="-0.1347" relative="1" as="geometry">
            <mxPoint x="17" y="-16" as="offset" />
          </mxGeometry>
        </mxCell>
        <mxCell id="wv1XjT0LFwEQacN8_PaS-3" value="&lt;font face=&quot;Times New Roman&quot;&gt;Отрисовка изображения размера экрана&lt;/font&gt;" style="rounded=0;whiteSpace=wrap;html=1;hachureGap=4;strokeColor=default;align=center;verticalAlign=middle;fontFamily=Architects Daughter;fontSource=https%3A%2F%2Ffonts.googleapis.com%2Fcss%3Ffamily%3DArchitects%2BDaughter;fontSize=20;fontColor=default;fillColor=default;" parent="1" vertex="1">
          <mxGeometry x="891" y="499" width="188" height="98" as="geometry" />
        </mxCell>
        <mxCell id="EeyhYUfQf3vMyXZD8uqz-3" style="edgeStyle=orthogonalEdgeStyle;rounded=0;orthogonalLoop=1;jettySize=auto;html=1;exitX=1;exitY=0.5;exitDx=0;exitDy=0;entryX=0;entryY=0.75;entryDx=0;entryDy=0;" edge="1" parent="1" source="wv1XjT0LFwEQacN8_PaS-5" target="mkTNvh2SJK-kbhCOiKYR-6">
          <mxGeometry relative="1" as="geometry">
            <Array as="points">
              <mxPoint x="1418" y="659" />
              <mxPoint x="1418" y="715" />
              <mxPoint x="534" y="715" />
              <mxPoint x="534" y="438" />
            </Array>
          </mxGeometry>
        </mxCell>
        <mxCell id="EeyhYUfQf3vMyXZD8uqz-4" value="&lt;font style=&quot;font-size: 16px;&quot; face=&quot;Times New Roman&quot;&gt;новый шаг&lt;/font&gt;" style="edgeLabel;html=1;align=center;verticalAlign=middle;resizable=0;points=[];" vertex="1" connectable="0" parent="EeyhYUfQf3vMyXZD8uqz-3">
          <mxGeometry x="-0.1405" y="1" relative="1" as="geometry">
            <mxPoint x="389" y="-69" as="offset" />
          </mxGeometry>
        </mxCell>
        <mxCell id="wv1XjT0LFwEQacN8_PaS-5" value="&lt;font face=&quot;Times New Roman&quot;&gt;шаг прохода по картинной плоскости уменьшается&lt;/font&gt;" style="rounded=0;whiteSpace=wrap;html=1;hachureGap=4;strokeColor=default;align=center;verticalAlign=middle;fontFamily=Architects Daughter;fontSource=https%3A%2F%2Ffonts.googleapis.com%2Fcss%3Ffamily%3DArchitects%2BDaughter;fontSize=20;fontColor=default;fillColor=default;" parent="1" vertex="1">
          <mxGeometry x="1145" y="620" width="190" height="78" as="geometry" />
        </mxCell>
        <mxCell id="wv1XjT0LFwEQacN8_PaS-8" value="" style="endArrow=classic;html=1;rounded=0;fontFamily=Architects Daughter;fontSource=https%3A%2F%2Ffonts.googleapis.com%2Fcss%3Ffamily%3DArchitects%2BDaughter;fontSize=20;fontColor=default;entryX=0.5;entryY=0;entryDx=0;entryDy=0;" parent="1" edge="1">
          <mxGeometry width="50" height="50" relative="1" as="geometry">
            <mxPoint x="659" y="132" as="sourcePoint" />
            <mxPoint x="659.47" y="353" as="targetPoint" />
          </mxGeometry>
        </mxCell>
        <mxCell id="wv1XjT0LFwEQacN8_PaS-9" value="&lt;font face=&quot;Times New Roman&quot;&gt;закон преломления&lt;/font&gt;" style="edgeLabel;html=1;align=center;verticalAlign=middle;resizable=0;points=[];fontSize=20;fontFamily=Architects Daughter;fontColor=default;rotation=-90;" parent="wv1XjT0LFwEQacN8_PaS-8" vertex="1" connectable="0">
          <mxGeometry x="-0.0348" y="-2" relative="1" as="geometry">
            <mxPoint x="-13" y="-1" as="offset" />
          </mxGeometry>
        </mxCell>
        <mxCell id="wv1XjT0LFwEQacN8_PaS-18" value="" style="endArrow=classic;html=1;rounded=0;fontFamily=Architects Daughter;fontSource=https%3A%2F%2Ffonts.googleapis.com%2Fcss%3Ffamily%3DArchitects%2BDaughter;fontSize=20;fontColor=default;entryX=0.25;entryY=1;entryDx=0;entryDy=0;" parent="1" edge="1">
          <mxGeometry width="50" height="50" relative="1" as="geometry">
            <mxPoint x="611.5" y="979" as="sourcePoint" />
            <mxPoint x="611" y="466" as="targetPoint" />
          </mxGeometry>
        </mxCell>
        <mxCell id="wv1XjT0LFwEQacN8_PaS-19" value="&lt;font face=&quot;Times New Roman&quot;&gt;макс. интенсивность луча&lt;/font&gt;" style="edgeLabel;html=1;align=center;verticalAlign=middle;resizable=0;points=[];fontSize=20;fontFamily=Architects Daughter;fontColor=default;rotation=-90;" parent="wv1XjT0LFwEQacN8_PaS-18" vertex="1" connectable="0">
          <mxGeometry x="-0.3685" y="-1" relative="1" as="geometry">
            <mxPoint x="-16" y="59" as="offset" />
          </mxGeometry>
        </mxCell>
        <mxCell id="wv1XjT0LFwEQacN8_PaS-20" value="" style="endArrow=classic;html=1;rounded=0;fontFamily=Architects Daughter;fontSource=https%3A%2F%2Ffonts.googleapis.com%2Fcss%3Ffamily%3DArchitects%2BDaughter;fontSize=20;fontColor=default;entryX=0.5;entryY=1;entryDx=0;entryDy=0;" parent="1" edge="1">
          <mxGeometry width="50" height="50" relative="1" as="geometry">
            <mxPoint x="671" y="986" as="sourcePoint" />
            <mxPoint x="671.0000000000005" y="466" as="targetPoint" />
          </mxGeometry>
        </mxCell>
        <mxCell id="wv1XjT0LFwEQacN8_PaS-21" value="&lt;font face=&quot;Times New Roman&quot;&gt;макс. количество делений луча&lt;/font&gt;" style="edgeLabel;html=1;align=center;verticalAlign=middle;resizable=0;points=[];fontSize=20;fontFamily=Architects Daughter;fontColor=default;rotation=-90;" parent="wv1XjT0LFwEQacN8_PaS-20" vertex="1" connectable="0">
          <mxGeometry x="-0.2237" y="-3" relative="1" as="geometry">
            <mxPoint x="-18" y="77" as="offset" />
          </mxGeometry>
        </mxCell>
        <mxCell id="wv1XjT0LFwEQacN8_PaS-22" value="" style="endArrow=classic;html=1;rounded=0;fontFamily=Architects Daughter;fontSource=https%3A%2F%2Ffonts.googleapis.com%2Fcss%3Ffamily%3DArchitects%2BDaughter;fontSize=20;fontColor=default;entryX=0.75;entryY=1;entryDx=0;entryDy=0;" parent="1" edge="1">
          <mxGeometry width="50" height="50" relative="1" as="geometry">
            <mxPoint x="724" y="987" as="sourcePoint" />
            <mxPoint x="724.02" y="468" as="targetPoint" />
          </mxGeometry>
        </mxCell>
        <mxCell id="wv1XjT0LFwEQacN8_PaS-23" value="&lt;font face=&quot;Times New Roman&quot;&gt;размер выборки ячеек RSM&lt;/font&gt;" style="edgeLabel;html=1;align=center;verticalAlign=middle;resizable=0;points=[];fontSize=20;fontFamily=Architects Daughter;fontColor=default;rotation=-90;" parent="wv1XjT0LFwEQacN8_PaS-22" vertex="1" connectable="0">
          <mxGeometry x="0.0943" y="-1" relative="1" as="geometry">
            <mxPoint x="-21" y="166" as="offset" />
          </mxGeometry>
        </mxCell>
        <mxCell id="wv1XjT0LFwEQacN8_PaS-24" value="" style="endArrow=classic;html=1;rounded=0;fontFamily=Architects Daughter;fontSource=https%3A%2F%2Ffonts.googleapis.com%2Fcss%3Ffamily%3DArchitects%2BDaughter;fontSize=20;fontColor=default;entryX=0;entryY=0.25;entryDx=0;entryDy=0;" parent="1" edge="1">
          <mxGeometry width="50" height="50" relative="1" as="geometry">
            <mxPoint x="-39" y="288.5" as="sourcePoint" />
            <mxPoint x="205" y="288" as="targetPoint" />
          </mxGeometry>
        </mxCell>
        <mxCell id="wv1XjT0LFwEQacN8_PaS-27" value="&lt;font face=&quot;Times New Roman&quot;&gt;объекты&lt;/font&gt;" style="edgeLabel;html=1;align=center;verticalAlign=middle;resizable=0;points=[];fontSize=20;fontFamily=Architects Daughter;fontColor=default;" parent="wv1XjT0LFwEQacN8_PaS-24" vertex="1" connectable="0">
          <mxGeometry x="-0.2112" y="-1" relative="1" as="geometry">
            <mxPoint x="-88" y="-16" as="offset" />
          </mxGeometry>
        </mxCell>
        <mxCell id="wv1XjT0LFwEQacN8_PaS-25" value="" style="endArrow=classic;html=1;rounded=0;fontFamily=Architects Daughter;fontSource=https%3A%2F%2Ffonts.googleapis.com%2Fcss%3Ffamily%3DArchitects%2BDaughter;fontSize=20;fontColor=default;entryX=0;entryY=0.5;entryDx=0;entryDy=0;" parent="1" edge="1">
          <mxGeometry width="50" height="50" relative="1" as="geometry">
            <mxPoint x="-5" y="319" as="sourcePoint" />
            <mxPoint x="205" y="319" as="targetPoint" />
          </mxGeometry>
        </mxCell>
        <mxCell id="wv1XjT0LFwEQacN8_PaS-28" value="&lt;font face=&quot;Times New Roman&quot;&gt;источники света&lt;/font&gt;" style="edgeLabel;html=1;align=center;verticalAlign=middle;resizable=0;points=[];fontSize=20;fontFamily=Architects Daughter;fontColor=default;" parent="wv1XjT0LFwEQacN8_PaS-25" vertex="1" connectable="0">
          <mxGeometry x="-0.088" y="-4" relative="1" as="geometry">
            <mxPoint x="-64" y="-19" as="offset" />
          </mxGeometry>
        </mxCell>
        <mxCell id="wv1XjT0LFwEQacN8_PaS-26" value="" style="endArrow=classic;html=1;rounded=0;fontFamily=Architects Daughter;fontSource=https%3A%2F%2Ffonts.googleapis.com%2Fcss%3Ffamily%3DArchitects%2BDaughter;fontSize=20;fontColor=default;" parent="1" edge="1">
          <mxGeometry width="50" height="50" relative="1" as="geometry">
            <mxPoint x="58" y="347.5" as="sourcePoint" />
            <mxPoint x="204" y="347" as="targetPoint" />
          </mxGeometry>
        </mxCell>
        <mxCell id="wv1XjT0LFwEQacN8_PaS-29" value="&lt;font face=&quot;Times New Roman&quot;&gt;размеры экрана&lt;/font&gt;" style="edgeLabel;html=1;align=center;verticalAlign=middle;resizable=0;points=[];fontSize=20;fontFamily=Architects Daughter;fontColor=default;" parent="wv1XjT0LFwEQacN8_PaS-26" vertex="1" connectable="0">
          <mxGeometry x="-0.336" y="2" relative="1" as="geometry">
            <mxPoint x="-12" y="-12" as="offset" />
          </mxGeometry>
        </mxCell>
        <mxCell id="wv1XjT0LFwEQacN8_PaS-36" value="" style="endArrow=classic;html=1;rounded=0;fontFamily=Architects Daughter;fontSource=https%3A%2F%2Ffonts.googleapis.com%2Fcss%3Ffamily%3DArchitects%2BDaughter;fontSize=20;fontColor=default;" parent="1" edge="1">
          <mxGeometry width="50" height="50" relative="1" as="geometry">
            <mxPoint x="108" y="376" as="sourcePoint" />
            <mxPoint x="205" y="376" as="targetPoint" />
          </mxGeometry>
        </mxCell>
        <mxCell id="wv1XjT0LFwEQacN8_PaS-37" value="&lt;font face=&quot;Times New Roman&quot;&gt;наблюдатель&lt;/font&gt;" style="edgeLabel;html=1;align=center;verticalAlign=middle;resizable=0;points=[];fontSize=20;fontFamily=Architects Daughter;fontColor=default;" parent="wv1XjT0LFwEQacN8_PaS-36" vertex="1" connectable="0">
          <mxGeometry x="-0.6415" relative="1" as="geometry">
            <mxPoint x="1" y="-15" as="offset" />
          </mxGeometry>
        </mxCell>
        <mxCell id="mkTNvh2SJK-kbhCOiKYR-15" style="edgeStyle=orthogonalEdgeStyle;rounded=0;orthogonalLoop=1;jettySize=auto;html=1;entryX=0;entryY=0.25;entryDx=0;entryDy=0;exitX=1;exitY=0.25;exitDx=0;exitDy=0;" parent="1" source="mkTNvh2SJK-kbhCOiKYR-6" target="wv1XjT0LFwEQacN8_PaS-3" edge="1">
          <mxGeometry relative="1" as="geometry">
            <mxPoint x="788" y="310" as="sourcePoint" />
            <mxPoint x="861" y="462.5" as="targetPoint" />
            <Array as="points">
              <mxPoint x="829" y="383" />
              <mxPoint x="829" y="524" />
              <mxPoint x="891" y="524" />
            </Array>
          </mxGeometry>
        </mxCell>
        <mxCell id="mkTNvh2SJK-kbhCOiKYR-18" value="&lt;font style=&quot;font-size: 14px;&quot; face=&quot;Times New Roman&quot;&gt;изображение&lt;/font&gt;" style="edgeLabel;html=1;align=center;verticalAlign=middle;resizable=0;points=[];" parent="mkTNvh2SJK-kbhCOiKYR-15" vertex="1" connectable="0">
          <mxGeometry x="-0.6348" relative="1" as="geometry">
            <mxPoint x="-2" y="-13" as="offset" />
          </mxGeometry>
        </mxCell>
        <mxCell id="mkTNvh2SJK-kbhCOiKYR-6" value="&lt;font style=&quot;font-size: 20px;&quot; face=&quot;Times New Roman&quot;&gt;Трассировка лучей&lt;/font&gt;" style="rounded=0;whiteSpace=wrap;html=1;" parent="1" vertex="1">
          <mxGeometry x="554" y="355" width="212" height="111" as="geometry" />
        </mxCell>
        <mxCell id="mkTNvh2SJK-kbhCOiKYR-20" value="" style="endArrow=classic;html=1;rounded=0;entryX=0;entryY=0.75;entryDx=0;entryDy=0;exitX=1;exitY=0.75;exitDx=0;exitDy=0;" parent="1" target="wv1XjT0LFwEQacN8_PaS-3" edge="1" source="mkTNvh2SJK-kbhCOiKYR-6">
          <mxGeometry width="50" height="50" relative="1" as="geometry">
            <mxPoint x="810" y="486" as="sourcePoint" />
            <mxPoint x="898" y="560" as="targetPoint" />
            <Array as="points">
              <mxPoint x="811" y="438" />
              <mxPoint x="810" y="573" />
            </Array>
          </mxGeometry>
        </mxCell>
        <mxCell id="mkTNvh2SJK-kbhCOiKYR-27" value="&lt;font style=&quot;font-size: 14px;&quot; face=&quot;Times New Roman&quot;&gt;шаг&lt;/font&gt;" style="edgeLabel;html=1;align=center;verticalAlign=middle;resizable=0;points=[];" parent="mkTNvh2SJK-kbhCOiKYR-20" vertex="1" connectable="0">
          <mxGeometry x="0.701" y="1" relative="1" as="geometry">
            <mxPoint x="-65" y="-149" as="offset" />
          </mxGeometry>
        </mxCell>
      </root>
    </mxGraphModel>
  </diagram>
</mxfile>
